<svg xmlns="http://www.w3.org/2000/svg" width="20.966" height="20.968" viewBox="0 0 20.966 20.968"><g transform="translate(0 0.025)"><path d="M.778.746A2.613,2.613,0,0,1,2.638-.012c1.093,0,2.162,0,3.178,0H7.429A2.607,2.607,0,0,1,9.993,2.556c.029,1.691.029,3.264,0,4.8A2.623,2.623,0,0,1,7.351,9.964c-.8.012-1.6.016-2.383.016C2.7,10,.209,10.288.017,7.278c.008-.88,0-1.749,0-2.625C.07,3.342-.287,1.741.778.746ZM10,15.522c0,.868,0,1.769,0,2.654a2.686,2.686,0,0,1-2.658,2.76c-1.229-.029-2.555,0-3.8,0a3.389,3.389,0,0,1-2.764-.766,3.094,3.094,0,0,1-.766-2.515c0-1.347,0-2.74.008-4.112a2.585,2.585,0,0,1,1.925-2.49,20.239,20.239,0,0,1,3.231-.111c.684,0,1.364,0,2.048,0,2.83.147,2.863,2.322,2.773,4.579Zm9.5-3.108a4.991,4.991,0,1,1-7.06.008A5.009,5.009,0,0,1,19.5,12.413ZM10.976,7.3c-.02-1.667-.02-3.2,0-4.689A2.623,2.623,0,0,1,13.588-.016h.033c1.569-.012,3.133-.012,4.771,0a2.619,2.619,0,0,1,2.56,2.568c.008.913,0,1.81,0,2.715-.045,1.31.283,2.936-.766,3.927-1.069,1.118-2.842.7-4.226.782-.786,0-1.573,0-2.334-.016a2.64,2.64,0,0,1-2.65-2.633V7.3Z" transform="translate(0)"/></g></svg>