<svg xmlns="http://www.w3.org/2000/svg" width="99.923" height="41.738" viewBox="0 0 99.923 41.738"><path d="M1.24-14.04V15.95H18.115V10.311H8.545V-14.04Zm43.7,18.071c0-7.561-5.383-12.261-12.389-12.261-6.963,0-12.389,4.7-12.389,12.261s5.3,12.261,12.3,12.261S44.943,11.592,44.943,4.031Zm-17.344,0c0-4.058,2.307-5.938,4.956-5.938,2.563,0,4.956,1.88,4.956,5.938,0,4.016-2.435,5.938-5.041,5.938C29.82,9.969,27.6,8.046,27.6,4.031Zm19.78-.043c0,7.519,4.657,12.3,10.509,12.3a8.431,8.431,0,0,0,7.348-3.759v3.375c0,4.016-2.179,5.468-4.956,5.468-2.521,0-4.315-1.153-4.785-2.948h-7.22c.641,5.682,5.255,9.27,12.346,9.27,8.245,0,11.919-5.425,11.919-11.791v-23.8H65.235v3.375A8.258,8.258,0,0,0,57.887-8.23C52.034-8.23,47.378-3.531,47.378,3.988Zm17.857.043c0,3.8-2.435,5.9-5.212,5.9-2.734,0-5.212-2.136-5.212-5.938s2.478-5.853,5.212-5.853C62.8-1.865,65.235.229,65.235,4.031Zm35.928,0c0-7.561-5.383-12.261-12.389-12.261-6.963,0-12.389,4.7-12.389,12.261s5.3,12.261,12.3,12.261S101.163,11.592,101.163,4.031Zm-17.344,0c0-4.058,2.307-5.938,4.956-5.938,2.563,0,4.956,1.88,4.956,5.938,0,4.016-2.435,5.938-5.041,5.938C86.04,9.969,83.818,8.046,83.818,4.031Z" transform="translate(-1.24 14.04)" fill="#232325"/></svg>