<svg xmlns="http://www.w3.org/2000/svg" width="20.966" height="20.966" viewBox="0 0 20.966 20.966"><path d="M94.718,112.043a.614.614,0,0,0-.614.614v3.481H92.261a.614.614,0,0,0,0,1.229h2.457a.614.614,0,0,0,.614-.614v-4.095A.614.614,0,0,0,94.718,112.043Zm-13.1-1.72a.614.614,0,0,0,.614-.614v-3.481h1.843a.614.614,0,0,0,0-1.229H81.614a.614.614,0,0,0-.614.614v4.095A.614.614,0,0,0,81.614,110.323Zm8.149,5.2H87.716a1.228,1.228,0,0,0,0,2.457h2.047a.614.614,0,0,0,.614-.614v-1.229A.614.614,0,0,0,89.763,115.524Z" transform="translate(-77.683 -100.7)" fill="#62686d"/><path d="M7.576,102.367a2.46,2.46,0,0,1,2.457-2.457h1.843V99.3a1.845,1.845,0,0,0-1.843-1.843H1.843A1.845,1.845,0,0,0,0,99.3v6.142a1.845,1.845,0,0,0,1.843,1.843h8.19a1.845,1.845,0,0,0,1.843-1.843v-.614H10.033A2.46,2.46,0,0,1,7.576,102.367ZM20.352,90H18.3a1.228,1.228,0,0,0,0,2.457h2.047a.614.614,0,0,0,.614-.614V90.614A.614.614,0,0,0,20.352,90Z" transform="translate(0 -86.315)" fill="#62686d"/><path d="M209.576,4.914a2.46,2.46,0,0,1,2.457-2.457h1.843V1.843A1.845,1.845,0,0,0,212.033,0h-8.19A1.845,1.845,0,0,0,202,1.843V7.985a1.845,1.845,0,0,0,1.843,1.843h8.19a1.845,1.845,0,0,0,1.843-1.843V7.371h-1.843A2.46,2.46,0,0,1,209.576,4.914Z" transform="translate(-193.728)" fill="#62686d"/></svg>