<svg xmlns="http://www.w3.org/2000/svg" width="24.029" height="20.966" viewBox="0 0 24.029 20.966"><g transform="translate(0 -32.631)"><circle cx="4.083" cy="4.083" r="4.083" transform="translate(7.931 32.631)"/><circle cx="2.581" cy="2.581" r="2.581" transform="translate(17.693 35.635)"/><circle cx="2.581" cy="2.581" r="2.581" transform="translate(1.173 35.635)"/><path d="M6.3,241.255c-1.016-.832-1.936-.722-3.111-.722A3.181,3.181,0,0,0,0,243.7v5.125A1.379,1.379,0,0,0,1.38,250.2c3.286,0,2.891.059,2.891-.142C4.271,246.427,3.841,243.764,6.3,241.255Z" transform="translate(0 -198.14)"/><path d="M127.676,239.905c-2.052-.171-3.836,0-5.374,1.272-2.575,2.062-2.079,4.839-2.079,8.236a1.646,1.646,0,0,0,1.644,1.644c9.906,0,10.3.32,10.888-.981.193-.44.14-.3.14-4.509A5.69,5.69,0,0,0,127.676,239.905Zm7.71-.019c-1.181,0-2.1-.109-3.111.722,2.439,2.49,2.027,4.972,2.027,8.8,0,.2-.329.142,2.841.142a1.428,1.428,0,0,0,1.43-1.424v-5.077A3.181,3.181,0,0,0,135.386,239.887Z" transform="translate(-114.544 -197.494)"/></g></svg>