<svg xmlns="http://www.w3.org/2000/svg" width="23.296" height="20.966" viewBox="0 0 23.296 20.966"><g transform="translate(-2 -3)"><path d="M6.659,3H20.637A4.673,4.673,0,0,1,25.3,7.659a4.571,4.571,0,0,1-2.912,4.31V7.659a2.443,2.443,0,0,0-.466-1.281,1.591,1.591,0,0,0-1.281-.466H6.659a2.443,2.443,0,0,0-1.281.466,1.591,1.591,0,0,0-.466,1.281v4.31A4.571,4.571,0,0,1,2,7.659,4.673,4.673,0,0,1,6.659,3Z"/><path d="M19.978,7V20.978a2.336,2.336,0,0,1-2.33,2.33H8.33A2.336,2.336,0,0,1,6,20.978V7Zm-8.736,8.736.815.815V11.659a.919.919,0,0,1,.932-.932.857.857,0,0,1,.932.932v4.892l.815-.815a.906.906,0,1,1,1.281,1.281L14.5,18.531a2.039,2.039,0,0,1-2.912,0l-1.514-1.514a.914.914,0,0,1,0-1.281.778.778,0,0,1,1.165,0Z" transform="translate(0.659 0.659)" fill-rule="evenodd"/></g></svg>